<?xml version="1.0" standalone="no"?><!DOCTYPE svg PUBLIC "-//W3C//DTD SVG 1.1//EN" "http://www.w3.org/Graphics/SVG/1.1/DTD/svg11.dtd"><svg t="1651852072561" class="icon" viewBox="0 0 1024 1024" version="1.1" xmlns="http://www.w3.org/2000/svg" p-id="1334" xmlns:xlink="http://www.w3.org/1999/xlink" width="200" height="200"><defs><style type="text/css">@font-face { font-family: feedback-iconfont; src: url("//at.alicdn.com/t/font_1031158_u69w8yhxdu.woff2?t=1630033759944") format("woff2"), url("//at.alicdn.com/t/font_1031158_u69w8yhxdu.woff?t=1630033759944") format("woff"), url("//at.alicdn.com/t/font_1031158_u69w8yhxdu.ttf?t=1630033759944") format("truetype"); }
</style></defs><path d="M849.152 978.432H179.072c-73.088 0-132.16-52.864-132.16-118.144V337.856c0-65.28 59.072-118.144 132.16-118.144h670.08c73.088 0 132.16 52.864 132.16 118.144v522.432c0 65.28-59.072 118.144-132.16 118.144zM179.072 312.96c-21.76 0-38.848 12.416-38.848 24.832v522.432c0 10.88 17.088 24.832 38.848 24.832h670.08c21.76 0 38.912-12.416 38.912-24.832V337.856c0-10.88-17.152-24.832-38.912-24.832H179.072z" fill="#172B4D" p-id="1335"></path><path d="M513.344 312.96a49.28 49.28 0 0 1-24.896-6.208l-281.408-174.08a47.488 47.488 0 0 1-15.552-63.744c12.48-21.76 41.984-28.032 63.744-15.552l281.408 174.08c21.76 14.08 28.032 41.984 15.552 63.744a44.352 44.352 0 0 1-38.848 21.76z" fill="#172B4D" p-id="1336"></path><path d="M513.344 312.96a48.896 48.896 0 0 1-40.448-21.76 45.76 45.76 0 0 1 15.552-63.744L771.456 51.84a45.76 45.76 0 0 1 63.744 15.552 45.76 45.76 0 0 1-15.552 63.744L538.24 306.752a45.632 45.632 0 0 1-24.896 6.272z" fill="#172B4D" p-id="1337"></path></svg>